<?xml version="1.0" standalone="no"?>
<!DOCTYPE svg PUBLIC "-//W3C//DTD SVG 1.1//EN" "http://www.w3.org/Graphics/SVG/1.1/DTD/svg11.dtd" >
<svg xmlns="http://www.w3.org/2000/svg" xmlns:xlink="http://www.w3.org/1999/xlink" version="1.1" viewBox="-10 0 532 512">
   <path fill="currentColor"
d="M153 163q6 -6 6 -14.5t-6 -14.5q-15 -17 -15 -38q0 -23 15 -38q6 -6 6 -15t-6 -15t-14 -6t-14 6q-28 30 -28 68q0 39 28 67q14 16 28 0zM75 -15q-7 -7 -15 -7q-9 0 -15 7q-45 45 -45 111q0 64 45 111q14 14 30 0q6 -6 6 -15t-6 -15q-33 -35 -33 -81q0 -48 33 -81
q14 -16 0 -30zM257 148q21 0 36 -15t15 -37t-15 -37t-36 -15q-22 0 -37 15t-15 37t15 37t37 15zM467 -15q-6 -6 -14.5 -6t-14.5 6q-7 6 -7 15t7 15q32 34 32 81t-32 81q-16 16 0 30q7 7 14 7q8 0 15 -7q45 -45 45 -111q0 -64 -45 -111zM257 189q-21 0 -39 -9l-100 268h47
l28 -32h127l27 32h48l-100 -268q-18 9 -38 9zM256 205l33 115h-64zM193 384l32 -32h64l31 32h-127zM359 29q-6 6 -6 14.5t6 14.5q15 16 15 38q0 23 -15 38q-6 6 -6 15t6 15t14 6t14 -6q28 -30 28 -68q0 -39 -28 -67q-14 -16 -28 0z" />
</svg>
